<mxfile host="65bd71144e">
    <diagram id="lWIjl8X-z4Djjro9cqJt" name="Page-1">
        <mxGraphModel dx="1086" dy="692" grid="1" gridSize="10" guides="1" tooltips="1" connect="1" arrows="1" fold="1" page="1" pageScale="1" pageWidth="827" pageHeight="1169" math="0" shadow="0">
            <root>
                <mxCell id="0"/>
                <mxCell id="1" parent="0"/>
                <mxCell id="3" value="Set your timer" style="text;html=1;align=center;verticalAlign=middle;resizable=0;points=[];autosize=1;strokeColor=none;fillColor=none;" vertex="1" parent="1">
                    <mxGeometry x="100" y="140" width="100" height="30" as="geometry"/>
                </mxCell>
                <mxCell id="4" value="Set" style="rounded=1;whiteSpace=wrap;html=1;fontSize=14;" vertex="1" parent="1">
                    <mxGeometry x="65" y="310" width="125" height="30" as="geometry"/>
                </mxCell>
                <mxCell id="7" value="1" style="rounded=1;whiteSpace=wrap;html=1;fontSize=14;" vertex="1" parent="1">
                    <mxGeometry x="130" y="200" width="60" height="30" as="geometry"/>
                </mxCell>
                <mxCell id="8" value="&lt;font style=&quot;font-size: 14px;&quot;&gt;&lt;b&gt;Countdown Timer&lt;/b&gt;&lt;/font&gt;" style="text;html=1;align=center;verticalAlign=middle;resizable=0;points=[];autosize=1;strokeColor=none;fillColor=none;fontSize=14;" vertex="1" parent="1">
                    <mxGeometry x="75" y="50" width="150" height="30" as="geometry"/>
                </mxCell>
                <mxCell id="11" value="1" style="rounded=1;whiteSpace=wrap;html=1;fontSize=14;" vertex="1" parent="1">
                    <mxGeometry x="260" y="200" width="60" height="30" as="geometry"/>
                </mxCell>
                <mxCell id="12" value="1" style="rounded=1;whiteSpace=wrap;html=1;fontSize=14;" vertex="1" parent="1">
                    <mxGeometry x="390" y="200" width="60" height="30" as="geometry"/>
                </mxCell>
                <mxCell id="14" value="Hours" style="text;html=1;align=center;verticalAlign=middle;resizable=0;points=[];autosize=1;strokeColor=none;fillColor=none;" vertex="1" parent="1">
                    <mxGeometry x="65" y="200" width="60" height="30" as="geometry"/>
                </mxCell>
                <mxCell id="15" value="Minutes" style="text;html=1;align=center;verticalAlign=middle;resizable=0;points=[];autosize=1;strokeColor=none;fillColor=none;" vertex="1" parent="1">
                    <mxGeometry x="190" y="200" width="70" height="30" as="geometry"/>
                </mxCell>
                <mxCell id="18" value="Seconds" style="text;html=1;align=center;verticalAlign=middle;resizable=0;points=[];autosize=1;strokeColor=none;fillColor=none;" vertex="1" parent="1">
                    <mxGeometry x="320" y="200" width="70" height="30" as="geometry"/>
                </mxCell>
                <mxCell id="19" value="" style="shape=image;verticalLabelPosition=bottom;labelBackgroundColor=default;verticalAlign=top;aspect=fixed;imageAspect=0;image=data:image/png,iVBORw0KGgoAAAANSUhEUgAAAAkAAAAJAQMAAADaX5RTAAAABlBMVEV7mr3///+wksspAAAAAnRSTlP/AOW3MEoAAAAdSURBVAgdY9jXwCDDwNDRwHCwgeExmASygSL7GgB12QiqNHZZIwAAAABJRU5ErkJggg==;" vertex="1" parent="1">
                    <mxGeometry width="9" height="9" as="geometry"/>
                </mxCell>
            </root>
        </mxGraphModel>
    </diagram>
</mxfile>